<?xml version="1.0" encoding="UTF-8"?>
<!DOCTYPE svg PUBLIC "-//W3C//DTD SVG 1.0//EN" "http://www.w3.org/TR/2001/REC-SVG-20010904/DTD/svg10.dtd">
<!-- Creator: CorelDRAW X8 -->
<svg xmlns="http://www.w3.org/2000/svg" xml:space="preserve" width="211.667mm" height="211.667mm" version="1.0" style="shape-rendering:geometricPrecision; text-rendering:geometricPrecision; image-rendering:optimizeQuality; fill-rule:evenodd; clip-rule:evenodd"
viewBox="0 0 21167 21167"
 xmlns:xlink="http://www.w3.org/1999/xlink">
 <defs>
  <style type="text/css">
   <![CDATA[
    .fil0 {fill:none}
    .fil5 {fill:#71912F}
    .fil4 {fill:#9CC740}
    .fil3 {fill:#D0E950}
    .fil2 {fill:#D3EC52;fill-rule:nonzero}
    .fil1 {fill:white;fill-rule:nonzero}
   ]]>
  </style>
 </defs>
 <g id="Layer_x0020_1">
  <metadata id="CorelCorpID_0Corel-Layer"/>
  <rect class="fil0" width="21167" height="21167"/>
  <g id="_2406827376800">
   <g>
    <path class="fil1" d="M9352 12303l40 0 0 -244 95 0 0 -35 -230 0 0 35 95 0 0 244zm504 0l-66 -94c39,-14 61,-45 61,-88 0,-60 -44,-97 -116,-97l-109 0 0 279 40 0 0 -85 69 0c6,0 12,0 17,-1l60 86 44 0zm-123 -119l-67 0 0 -125 67 0c51,0 78,22 78,62 0,40 -27,63 -78,63zm486 119l42 0 -127 -279 -39 0 -126 279 41 0 30 -70 148 0 31 70zm-165 -102l60 -136 60 136 -120 0zm464 105c44,0 81,-15 107,-44l-26 -25c-22,23 -48,33 -79,33 -62,0 -109,-45 -109,-107 0,-61 47,-107 109,-107 31,0 57,11 79,33l26 -25c-26,-28 -63,-43 -106,-43 -85,0 -148,60 -148,142 0,83 63,143 147,143zm457 -3l46 0 -126 -154 119 -125 -46 0 -151 156 0 -156 -40 0 0 279 40 0 0 -72 51 -52 107 124zm188 2c14,0 26,-11 26,-27 0,-16 -12,-27 -26,-27 -15,0 -28,11 -28,27 0,16 13,27 28,27zm344 -2l40 0 0 -244 95 0 0 -35 -230 0 0 35 95 0 0 244zm504 0l-66 -94c39,-14 61,-45 61,-88 0,-60 -44,-97 -116,-97l-109 0 0 279 40 0 0 -85 69 0c6,0 12,0 17,-1l60 86 44 0zm-122 -119l-68 0 0 -125 68 0c50,0 77,22 77,62 0,40 -27,63 -77,63zm485 119l42 0 -127 -279 -39 0 -126 279 41 0 31 -70 147 0 31 70zm-165 -102l60 -136 61 136 -121 0zm344 102l40 0 0 -279 -40 0 0 279zm419 -279l0 208 -167 -208 -33 0 0 279 40 0 0 -208 167 208 32 0 0 -279 -39 0zm222 281c15,0 27,-11 27,-27 0,-16 -12,-27 -27,-27 -14,0 -27,11 -27,27 0,16 13,27 27,27zm3791 0c15,0 27,-11 27,-27 0,-16 -12,-27 -27,-27 -14,0 -27,11 -27,27 0,16 13,27 27,27z"/>
    <path class="fil2" d="M13539 12303l39 0 0 -244 96 0 0 -35 -230 0 0 35 95 0 0 244zm503 0l-66 -94c39,-14 62,-45 62,-88 0,-60 -44,-97 -116,-97l-109 0 0 279 40 0 0 -85 69 0c6,0 11,0 17,-1l60 86 43 0zm-122 -119l-67 0 0 -125 67 0c51,0 78,22 78,62 0,40 -27,63 -78,63zm486 119l42 0 -127 -279 -39 0 -126 279 41 0 30 -70 148 0 31 70zm-165 -102l60 -136 60 136 -120 0zm543 -177l0 208 -167 -208 -32 0 0 279 40 0 0 -208 167 208 32 0 0 -279 -40 0zm301 282c73,0 107,-37 107,-79 0,-102 -168,-60 -168,-128 0,-24 20,-44 67,-44 25,0 52,7 77,22l13 -31c-23,-16 -57,-25 -90,-25 -73,0 -106,37 -106,80 0,103 168,60 168,128 0,24 -20,43 -68,43 -36,0 -72,-13 -92,-32l-15 31c22,21 64,35 107,35zm458 -247l0 -35 -197 0 0 279 40 0 0 -113 140 0 0 -34 -140 0 0 -97 157 0zm274 247c85,0 148,-61 148,-143 0,-82 -63,-142 -148,-142 -85,0 -148,61 -148,142 0,82 63,143 148,143zm0 -36c-62,0 -109,-45 -109,-107 0,-61 47,-107 109,-107 62,0 108,46 108,107 0,62 -46,107 -108,107zm534 33l-66 -94c39,-14 61,-45 61,-88 0,-60 -44,-97 -116,-97l-109 0 0 279 40 0 0 -85 69 0c6,0 12,0 17,-1l60 86 44 0zm-122 -119l-68 0 0 -125 68 0c51,0 77,22 77,62 0,40 -26,63 -77,63zm574 119l-1 -279 -32 0 -115 196 -116 -196 -33 0 0 279 38 0 0 -202 101 168 18 0 101 -169 0 203 39 0z"/>
   </g>
   <g>
    <path class="fil1" d="M8390 9826c12,0 20,2 25,5 6,4 11,10 15,18l514 944c4,8 11,12 21,12l9 0c8,0 15,-4 20,-12l507 -944c7,-15 20,-23 40,-23l230 0c14,0 22,4 25,12 3,7 2,17 -4,29l-576 1054c-29,54 -58,90 -86,107 -28,18 -60,27 -98,27l-102 0c-45,0 -83,-9 -113,-27 -30,-17 -59,-53 -88,-107l-583 -1054c-6,-12 -7,-22 -4,-29 3,-8 12,-12 27,-12l221 0z"/>
    <path class="fil1" d="M12042 9826c89,0 165,9 228,26 62,17 113,44 152,80 40,37 68,85 85,143 18,59 27,130 27,214l0 302c0,85 -9,156 -27,215 -17,59 -45,107 -85,144 -39,37 -90,64 -152,80 -63,16 -139,25 -228,25l-542 0c-89,0 -164,-9 -226,-25 -62,-16 -113,-43 -152,-80 -39,-37 -68,-85 -86,-144 -18,-59 -27,-130 -27,-215l0 -302c0,-84 9,-155 27,-214 18,-58 47,-106 86,-143 39,-36 90,-63 152,-80 62,-17 137,-26 226,-26l542 0zm-765 746c0,46 4,84 12,115 7,31 20,55 37,74 18,18 42,31 72,38 29,8 67,12 113,12l521 0c45,0 83,-4 113,-12 30,-7 54,-20 71,-38 18,-19 30,-43 38,-74 7,-31 11,-69 11,-115l0 -263c0,-46 -4,-84 -11,-115 -8,-31 -20,-56 -38,-74 -17,-18 -41,-31 -71,-38 -30,-8 -68,-12 -113,-12l-521 0c-46,0 -84,4 -113,12 -30,7 -54,20 -72,38 -17,18 -30,43 -37,74 -8,31 -12,69 -12,115l0 263z"/>
    <path class="fil1" d="M14034 9826c26,0 39,13 39,39l0 46 0 355 0 539 503 0 183 0 380 0c26,0 53,18 38,39l-121 172c-15,21 -13,39 -39,39l-258 0 -183 0 -503 0 -268 0 0 -250 0 -539 0 -355 0 -46c0,-26 13,-39 40,-39l189 0z"/>
    <path class="fil1" d="M16533 11055c12,0 20,-2 26,-6 5,-3 10,-9 15,-17l514 -944c3,-9 10,-13 21,-13l9 0c8,0 14,4 19,13l507 944c7,15 20,23 40,23l230 0c14,0 23,-4 26,-12 3,-7 1,-17 -5,-29l-575 -1054c-30,-54 -58,-90 -86,-107 -28,-18 -61,-27 -99,-27l-101 0c-46,0 -84,9 -113,27 -30,17 -60,53 -89,107l-583 1054c-6,12 -7,22 -4,29 3,8 12,12 27,12l221 0z"/>
   </g>
   <g>
    <path class="fil3" d="M3225 10147l1639 1139 3047 -2814 -2958 4222 -1728 -2547z"/>
    <path class="fil4" d="M4332 11779l404 -582 -1511 -1050 1107 1632z"/>
    <path class="fil5" d="M4864 11286l-532 493 370 -606 162 113z"/>
   </g>
  </g>
 </g>
</svg>
